<?xml version="1.0" standalone="no"?>
<!DOCTYPE svg PUBLIC "-//W3C//DTD SVG 20010904//EN"
 "http://www.w3.org/TR/2001/REC-SVG-20010904/DTD/svg10.dtd">
<svg version="1.0" xmlns="http://www.w3.org/2000/svg"
 width="160.000000pt" height="160.000000pt" viewBox="0 0 160.000000 160.000000"
 preserveAspectRatio="xMidYMid meet">
<metadata>
Created by potrace 1.14, written by Peter Selinger 2001-2017
</metadata>
<g transform="translate(0.000000,160.000000) scale(0.100000,-0.100000)"
fill="#000000" stroke="none">
<path d="M68 1553 c-34 -39 -38 -61 -34 -195 3 -113 7 -142 28 -194 13 -34 22
-72 20 -85 -18 -85 5 -172 63 -243 42 -52 44 -58 45 -123 1 -79 3 -93 19 -153
65 -231 239 -426 438 -488 104 -33 116 -34 303 -37 96 -1 191 -7 210 -12 57
-16 156 -6 214 20 112 51 172 162 202 372 30 201 -28 397 -153 520 -82 81
-191 125 -310 125 -38 0 -45 3 -53 28 -56 152 -178 260 -315 278 -111 14 -118
16 -148 51 -41 47 -100 72 -160 67 -38 -3 -48 0 -57 16 -16 31 -77 51 -143 49
-34 -2 -62 2 -69 9 -18 18 -83 15 -100 -5z"/>
</g>
</svg>
